<svg width="26" height="24" viewBox="0 0 26 24" fill="none" xmlns="http://www.w3.org/2000/svg">
<path opacity="0.65" d="M23.0894 19.1939C24.6111 17.2599 25.456 14.8889 25.4967 12.4384C25.5956 5.95115 20.0789 0.609686 13.1787 0.504386C6.27841 0.399086 0.609709 5.57633 0.508347 12.0636C0.482662 13.6203 0.784706 15.1653 1.39527 16.6002" fill="white"/>
<path d="M23.0895 19.6952C22.995 19.695 22.9023 19.6686 22.8222 19.619C22.742 19.5695 22.6774 19.4987 22.6357 19.4147C22.5941 19.3307 22.577 19.2369 22.5864 19.1438C22.5959 19.0507 22.6314 18.9621 22.6891 18.8879C24.1431 17.0394 24.949 14.7728 24.985 12.4308C25.08 6.23062 19.7813 1.10602 13.1788 1.00573C10.0246 0.93469 6.96467 2.07287 4.639 4.18228C2.34948 6.27073 1.06217 9.07246 1.01529 12.071C0.990801 13.5587 1.28037 15.0352 1.86547 16.4059C1.9184 16.5282 1.92003 16.6663 1.87001 16.7899C1.82 16.9134 1.72242 17.0122 1.59876 17.0646C1.4751 17.117 1.33548 17.1186 1.21061 17.0691C1.08575 17.0196 0.985864 16.9231 0.932938 16.8007C0.291196 15.3008 -0.0260314 13.6845 0.00166984 12.056C0.0536181 8.77787 1.45622 5.72167 3.95227 3.44393C6.46945 1.16459 9.77738 -0.0677614 13.1889 0.00287727C20.3553 0.111938 26.1025 5.69284 25.9986 12.4458C25.9599 15.0042 25.0797 17.4805 23.4912 19.4997C23.4438 19.5605 23.383 19.6098 23.3133 19.6437C23.2437 19.6776 23.1671 19.6952 23.0895 19.6952Z" fill="#6EA3AA"/>
<path d="M2.85896 11.1471C2.86783 9.44226 3.37465 6.56908 5.19664 6.05386C7.21248 5.48474 9.56029 7.07803 10.3129 8.13228C12.6334 7.70404 15.0171 7.73984 17.3234 8.23758C18.1077 7.20589 19.9398 5.81944 21.4602 6.31335C23.7586 7.05797 23.1783 10.2308 23.1365 11.9344C23.7761 12.6959 24.2189 13.5999 24.4266 14.5685C24.6343 15.5371 24.6008 16.5411 24.3288 17.494C23.2392 21.3587 19.4925 22.7527 15.822 23.2804C11.8942 23.8471 6.18492 23.4058 3.16559 20.5013C0.612519 18.0543 0.541565 13.7658 2.85896 11.1471Z" fill="white"/>
<path d="M12.7026 24C9.17896 24 5.23469 23.1952 2.80579 20.866C0.151363 18.305 -0.0386912 13.8184 2.35473 10.9591C2.40541 8.77032 3.13649 6.114 5.05984 5.5687C7.23533 4.9557 9.57047 6.48756 10.5245 7.58319C12.713 7.21764 14.9506 7.25077 17.127 7.68096C18.0723 6.59286 19.9399 5.28915 21.6212 5.8332C23.9677 6.59412 23.798 9.3432 23.6852 11.1671C23.6725 11.3765 23.6599 11.5783 23.6523 11.7638C24.2999 12.5807 24.7426 13.5379 24.9439 14.5569C25.1452 15.5758 25.0994 16.6275 24.8103 17.6255C23.8486 21.0378 20.9307 23.0485 15.8892 23.7743C14.8338 23.9246 13.7688 24 12.7026 24V24ZM6.08994 6.43617C5.836 6.43491 5.58312 6.46867 5.33859 6.53645C3.99934 6.91252 3.37722 9.19277 3.36582 11.1496V11.3364L3.23912 11.4768C1.06236 13.9388 1.18653 17.9063 3.51153 20.1415C6.26352 22.7877 11.6383 23.3757 15.7434 22.784C20.3453 22.1221 22.9921 20.347 23.8334 17.3585C24.0868 16.4844 24.1203 15.5622 23.9311 14.6723C23.7418 13.7824 23.3355 12.9518 22.7476 12.2527L22.6209 12.1086V11.9218C22.6209 11.6711 22.6437 11.3991 22.6614 11.1082C22.7881 9.02981 22.7767 7.26979 21.2943 6.78967C20.0678 6.39229 18.4359 7.59823 17.72 8.54467L17.5236 8.80166L17.2043 8.73271C14.9652 8.24914 12.6509 8.21419 10.3978 8.62992L10.0773 8.69009L9.88977 8.42684C9.33481 7.62831 7.66486 6.43617 6.08994 6.43617Z" fill="#6EA3AA"/>
<path d="M16.4848 16.3747C16.4848 16.3747 15.6663 16.3333 15.5295 15.5699C15.4484 15.7798 15.3165 15.9667 15.1453 16.1143C14.974 16.2618 14.7688 16.3655 14.5475 16.416C14.5475 16.416 14.2269 17.9128 15.4078 17.8639C16.5887 17.815 16.4848 16.3747 16.4848 16.3747Z" fill="#EF8FA0"/>
<path d="M16.4732 16.5726C16.5109 16.7769 16.4928 16.9873 16.4209 17.1823C16.3489 17.3773 16.2257 17.5498 16.0639 17.682C15.9051 17.8022 15.7132 17.872 15.5136 17.8823C15.3139 17.8926 15.1157 17.8429 14.9451 17.7397C14.8207 17.6659 14.7187 17.5602 14.6499 17.4338C14.5232 17.1831 14.5486 16.8722 14.584 16.5864" fill="#EF8FA0"/>
<path d="M16.6311 16.54C16.7578 17.2834 16.251 18.0092 15.5352 18.0581C15.3608 18.0721 15.1856 18.0453 15.0236 17.98C14.8616 17.9147 14.7174 17.8126 14.6026 17.682C14.3492 17.3762 14.3632 16.9562 14.41 16.5739C14.4102 16.5508 14.4152 16.5281 14.4248 16.507C14.4343 16.486 14.4481 16.4671 14.4654 16.4516C14.4827 16.4362 14.503 16.4244 14.5251 16.4171C14.5472 16.4098 14.5706 16.4071 14.5938 16.4091C14.617 16.4112 14.6395 16.4181 14.6599 16.4292C14.6803 16.4403 14.6982 16.4555 14.7124 16.4738C14.7265 16.4922 14.7367 16.5132 14.7422 16.5356C14.7478 16.558 14.7486 16.5813 14.7445 16.604C14.7103 16.8785 14.6634 17.2069 14.8472 17.4363C14.928 17.5304 15.0305 17.604 15.146 17.6509C15.2615 17.6978 15.3867 17.7166 15.5111 17.7059C16.0318 17.6695 16.398 17.1468 16.3004 16.6077C16.2961 16.5862 16.2961 16.5641 16.3004 16.5426C16.3047 16.5212 16.3133 16.5007 16.3256 16.4825C16.3379 16.4643 16.3537 16.4486 16.3721 16.4365C16.3905 16.4243 16.4111 16.4158 16.4329 16.4115C16.4546 16.4073 16.4769 16.4073 16.4986 16.4115C16.5204 16.4158 16.541 16.4242 16.5594 16.4364C16.5778 16.4486 16.5936 16.4642 16.606 16.4824C16.6183 16.5006 16.6268 16.5211 16.6311 16.5425V16.54Z" fill="#6EA3AA"/>
<path d="M15.519 16.7569C15.5621 16.5082 15.5651 16.2544 15.5279 16.0048Z" fill="#6EA3AA"/>
<path d="M15.4042 16.6991C15.4156 16.6365 15.4245 16.5738 15.4295 16.5086V16.565C15.4384 16.4448 15.4384 16.3242 15.4295 16.204V16.2591C15.4295 16.1902 15.4181 16.1225 15.408 16.0548C15.3915 15.9495 15.4333 15.8216 15.4954 15.7978C15.5575 15.774 15.6221 15.8329 15.6411 15.947C15.684 16.2349 15.6806 16.5277 15.631 16.8145C15.612 16.9198 15.5423 16.995 15.4802 16.9586C15.4441 16.9268 15.4176 16.8857 15.4035 16.84C15.3894 16.7942 15.3883 16.7455 15.4004 16.6991H15.4042Z" fill="#6EA3AA"/>
<path d="M16.7138 16.742C16.582 16.7419 16.4507 16.7272 16.3223 16.6981C16.0218 16.6246 15.7541 16.4553 15.5606 16.2162C15.367 15.9772 15.2585 15.6818 15.2516 15.3756C15.2488 15.2924 15.2794 15.2116 15.3368 15.1508C15.3942 15.0901 15.4736 15.0543 15.5576 15.0515C15.6416 15.0487 15.7233 15.079 15.7848 15.1358C15.8462 15.1925 15.8823 15.2711 15.8852 15.3542C15.8846 15.5232 15.9415 15.6874 16.0468 15.8205C16.1521 15.9535 16.2995 16.0476 16.4655 16.0876C16.7125 16.144 17.2903 16.1327 17.398 15.7253C17.4193 15.6448 17.4721 15.5761 17.5447 15.5341C17.6173 15.4921 17.7038 15.4804 17.7851 15.5015C17.8664 15.5227 17.9359 15.5749 17.9783 15.6467C18.0207 15.7185 18.0326 15.8041 18.0112 15.8845C17.8579 16.4612 17.2878 16.742 16.7138 16.742Z" fill="#6EA3AA"/>
<path d="M14.4344 16.708C13.8414 16.708 13.2497 16.4097 13.1103 15.8105C13.0946 15.7307 13.1109 15.648 13.1557 15.5799C13.2004 15.5117 13.2702 15.4634 13.3503 15.4452C13.4303 15.427 13.5144 15.4403 13.5848 15.4822C13.6551 15.5242 13.7063 15.5915 13.7274 15.6701C13.8224 16.08 14.4002 16.1088 14.6485 16.0599C14.8157 16.0251 14.9662 15.9355 15.0756 15.8056C15.185 15.6757 15.247 15.5132 15.2516 15.3441C15.257 15.261 15.2955 15.1834 15.3587 15.1284C15.4219 15.0734 15.5046 15.0455 15.5886 15.0508C15.6726 15.0561 15.7511 15.0943 15.8067 15.1568C15.8623 15.2193 15.8905 15.3011 15.8851 15.3843C15.8694 15.6905 15.752 15.983 15.5511 16.2165C15.3501 16.4499 15.077 16.6113 14.7739 16.6754C14.6621 16.6976 14.5484 16.7085 14.4344 16.708V16.708Z" fill="#6EA3AA"/>
<path d="M8.58574 13.2532C8.89311 13.289 9.18751 13.3964 9.44479 13.5666C9.67032 13.7233 9.98835 13.9916 10.0276 14.2786C10.0758 14.6234 9.60317 14.7801 9.34976 14.8891C9.01926 15.0265 8.67146 15.1188 8.31587 15.1637C8.25155 15.1794 8.18358 15.1695 8.1265 15.1363C8.06943 15.103 8.02779 15.0489 8.01051 14.9857C7.99501 14.9222 8.00513 14.8553 8.03873 14.7991C8.07233 14.7429 8.12675 14.7019 8.19043 14.6848C8.45264 14.6527 8.71079 14.5939 8.96078 14.5093C9.07658 14.4694 9.18996 14.4229 9.30035 14.3701C9.40751 14.3318 9.50669 14.2745 9.59303 14.2009L9.52715 14.3087C9.53982 14.3676 9.52715 14.3701 9.50687 14.3162C9.4942 14.2974 9.48153 14.2774 9.4676 14.2586C9.45366 14.2398 9.40931 14.1896 9.37891 14.157C9.30909 14.0848 9.23132 14.0204 9.14704 13.9652C8.97591 13.8523 8.78163 13.7782 8.57814 13.7484C8.51226 13.7464 8.44974 13.7191 8.40385 13.6723C8.35796 13.6255 8.33231 13.5629 8.33234 13.4977C8.33234 13.4312 8.35904 13.3674 8.40656 13.3204C8.45408 13.2734 8.51854 13.2469 8.58574 13.2469V13.2532Z" fill="#6EA3AA"/>
<path d="M4.63359 15.0457C4.61714 15.047 4.60062 15.047 4.58418 15.0457L3.31714 14.8025C3.28291 14.798 3.24996 14.7866 3.22033 14.7691C3.1907 14.7515 3.16502 14.7281 3.14485 14.7004C3.12468 14.6726 3.11046 14.6411 3.10306 14.6077C3.09565 14.5744 3.09523 14.5398 3.1018 14.5063C3.10837 14.4727 3.12181 14.4409 3.14129 14.4126C3.16076 14.3844 3.18586 14.3604 3.21505 14.3422C3.24423 14.3239 3.27689 14.3117 3.311 14.3064C3.34512 14.301 3.37998 14.3026 3.41344 14.3111L4.68047 14.5531C4.74768 14.5594 4.8096 14.5919 4.8526 14.6433C4.89561 14.6948 4.91619 14.7611 4.9098 14.8276C4.90342 14.8941 4.8706 14.9553 4.81856 14.9979C4.76652 15.0404 4.69953 15.0608 4.63232 15.0545L4.63359 15.0457Z" fill="#6EA3AA"/>
<path d="M3.38993 16.3294C3.32946 16.329 3.27111 16.3073 3.22545 16.268C3.17978 16.2288 3.1498 16.1747 3.14093 16.1155C3.13205 16.0563 3.14487 15.9959 3.17706 15.9453C3.20925 15.8946 3.25869 15.857 3.31645 15.8393L4.54547 15.4632C4.57758 15.4538 4.61125 15.4508 4.64454 15.4543C4.67784 15.4578 4.71012 15.4677 4.73953 15.4835C4.76895 15.4994 4.79492 15.5208 4.81597 15.5466C4.83702 15.5723 4.85274 15.6019 4.86222 15.6337C4.87171 15.6655 4.87477 15.6988 4.87125 15.7317C4.86772 15.7647 4.85767 15.7966 4.84167 15.8257C4.82567 15.8548 4.80403 15.8805 4.77799 15.9013C4.75195 15.9222 4.72202 15.9377 4.68991 15.9471L3.46089 16.3232C3.43765 16.3285 3.41377 16.3307 3.38993 16.3294Z" fill="#6EA3AA"/>
<path d="M22.9019 15.3216C22.8347 15.3269 22.7681 15.3056 22.7168 15.2624C22.6655 15.2191 22.6336 15.1575 22.6283 15.091C22.6229 15.0245 22.6444 14.9586 22.6881 14.9078C22.7319 14.857 22.7942 14.8255 22.8614 14.8202L24.1284 14.6159C24.1617 14.6106 24.1957 14.6119 24.2285 14.6196C24.2613 14.6273 24.2922 14.6414 24.3195 14.6609C24.3468 14.6805 24.3699 14.7052 24.3876 14.7336C24.4052 14.762 24.417 14.7935 24.4224 14.8265C24.4277 14.8594 24.4264 14.893 24.4186 14.9255C24.4108 14.9579 24.3966 14.9885 24.3768 15.0155C24.3571 15.0425 24.3321 15.0654 24.3034 15.0829C24.2747 15.1003 24.2428 15.112 24.2095 15.1173L22.9425 15.3216H22.9019Z" fill="#6EA3AA"/>
<path d="M24.1058 16.6404C24.0779 16.6405 24.0501 16.6363 24.0235 16.6278L22.8071 16.2192C22.7756 16.2086 22.7464 16.1921 22.7214 16.1704C22.6963 16.1487 22.6758 16.1224 22.6611 16.0929C22.6313 16.0333 22.6266 15.9644 22.6481 15.9014C22.6696 15.8384 22.7155 15.7864 22.7758 15.7569C22.836 15.7274 22.9056 15.7228 22.9693 15.7441L24.1869 16.1527C24.2434 16.1721 24.2911 16.2105 24.3217 16.2614C24.3523 16.3122 24.3638 16.372 24.3541 16.4304C24.3444 16.4887 24.3141 16.5418 24.2687 16.5802C24.2233 16.6187 24.1656 16.64 24.1058 16.6404V16.6404Z" fill="#6EA3AA"/>
<path d="M7.98652 16.0305C7.99133 15.7169 7.51084 15.4554 6.91331 15.4464C6.31579 15.4375 5.82749 15.6844 5.82268 15.998C5.81787 16.3116 6.29836 16.5731 6.89588 16.5821C7.49341 16.591 7.98171 16.3441 7.98652 16.0305Z" fill="#F397B7"/>
<path d="M22.6682 16.2511C22.673 15.9376 22.1925 15.6761 21.595 15.6671C20.9974 15.6581 20.5091 15.905 20.5043 16.2186C20.4995 16.5322 20.98 16.7937 21.5775 16.8027C22.1751 16.8117 22.6633 16.5647 22.6682 16.2511Z" fill="#F397B7"/>
<path d="M19.8103 15.4306C20.3967 15.4306 20.8721 14.9603 20.8721 14.3801C20.8721 13.8 20.3967 13.3297 19.8103 13.3297C19.2239 13.3297 18.7485 13.8 18.7485 14.3801C18.7485 14.9603 19.2239 15.4306 19.8103 15.4306Z" fill="#6EA3AA"/>
</svg>
